<?xml version="1.0" standalone="no"?>
<!DOCTYPE svg PUBLIC "-//W3C//DTD SVG 1.1//EN" "http://www.w3.org/Graphics/SVG/1.1/DTD/svg11.dtd">
<svg width="100" height="100" version="1.1" xmlns="http://www.w3.org/2000/svg">
  <title>6 by 6 orthogonal maze</title>
  <desc>6 by 6 orthogonal maze generated by The Maze Generator Website (http://www.mazegenerator.net/).</desc>
  <g fill="none" stroke="#000000" stroke-width="2" stroke-linecap="square">
    <line x1="2" y1="2" x2="34" y2="2" />
    <line x1="50" y1="2" x2="98" y2="2" />
    <line x1="18" y1="18" x2="50" y2="18" />
    <line x1="66" y1="18" x2="82" y2="18" />
    <line x1="2" y1="34" x2="18" y2="34" />
    <line x1="34" y1="34" x2="66" y2="34" />
    <line x1="66" y1="50" x2="82" y2="50" />
    <line x1="34" y1="66" x2="50" y2="66" />
    <line x1="82" y1="66" x2="98" y2="66" />
    <line x1="18" y1="82" x2="34" y2="82" />
    <line x1="50" y1="82" x2="82" y2="82" />
    <line x1="2" y1="98" x2="98" y2="98" />
    <line x1="2" y1="2" x2="2" y2="98" />
    <line x1="18" y1="34" x2="18" y2="66" />
    <line x1="34" y1="34" x2="34" y2="82" />
    <line x1="50" y1="2" x2="50" y2="34" />
    <line x1="50" y1="82" x2="50" y2="98" />
    <line x1="66" y1="34" x2="66" y2="66" />
    <line x1="82" y1="18" x2="82" y2="50" />
    <line x1="98" y1="2" x2="98" y2="98" />
  </g>
</svg>
