<?xml version="1.0" encoding="UTF-8" standalone="no"?>
<!DOCTYPE svg PUBLIC "-//W3C//DTD SVG 20010904//EN"
              "http://www.w3.org/TR/2001/REC-SVG-20010904/DTD/svg10.dtd">

<svg xmlns="http://www.w3.org/2000/svg"
     width="25.9328mm" height="25.9328mm"
     viewBox="0 0 98 98">
  <path id="Selection"
        fill="none" stroke="black" stroke-width="1"
        d="M 0.00,0.00
           C 0.00,0.00 0.00,98.00 0.00,98.00
             0.00,98.00 51.00,98.00 51.00,98.00
             51.00,98.00 51.00,83.00 51.00,83.00
             51.00,83.00 83.00,83.00 83.00,83.00
             83.00,83.00 83.00,63.00 83.00,63.00
             83.00,63.00 63.00,63.00 63.00,63.00
             63.00,63.00 63.00,67.00 63.00,67.00
             63.00,67.00 79.00,67.00 79.00,67.00
             79.00,67.00 79.00,79.00 79.00,79.00
             79.00,79.00 47.00,79.00 47.00,79.00
             47.00,79.00 47.00,95.00 47.00,95.00
             47.00,95.00 3.00,95.00 3.00,95.00
             3.00,95.00 3.00,67.00 3.00,67.00
             3.00,67.00 19.00,67.00 19.00,67.00
             19.00,67.00 19.00,47.00 19.00,47.00
             19.00,47.00 15.00,47.00 15.00,47.00
             15.00,47.00 15.00,63.00 15.00,63.00
             15.00,63.00 3.00,63.00 3.00,63.00
             3.00,63.00 3.00,35.00 3.00,35.00
             3.00,35.00 31.00,35.00 31.00,35.00
             31.00,35.00 31.00,51.00 31.00,51.00
             31.00,51.00 35.00,51.00 35.00,51.00
             35.00,51.00 35.00,35.00 35.00,35.00
             35.00,35.00 67.00,35.00 67.00,35.00
             67.00,35.00 67.00,31.00 67.00,31.00
             67.00,31.00 3.00,31.00 3.00,31.00
             3.00,31.00 3.00,3.00 3.00,3.00
             3.00,3.00 35.00,3.00 35.00,3.00
             35.00,3.00 35.00,0.00 35.00,0.00
             35.00,0.00 0.00,0.00 0.00,0.00 Z
           M 47.00,0.00
           C 47.00,0.00 47.00,15.00 47.00,15.00
             47.00,15.00 15.00,15.00 15.00,15.00
             15.00,15.00 15.00,19.00 15.00,19.00
             15.00,19.00 83.00,19.00 83.00,19.00
             83.00,19.00 83.00,15.00 83.00,15.00
             83.00,15.00 51.00,15.00 51.00,15.00
             51.00,15.00 51.00,3.00 51.00,3.00
             51.00,3.00 95.00,3.00 95.00,3.00
             95.00,3.00 95.00,31.00 95.00,31.00
             95.00,31.00 79.00,31.00 79.00,31.00
             79.00,31.00 79.00,47.00 79.00,47.00
             79.00,47.00 47.00,47.00 47.00,47.00
             47.00,47.00 47.00,63.00 47.00,63.00
             47.00,63.00 31.00,63.00 31.00,63.00
             31.00,63.00 31.00,79.00 31.00,79.00
             31.00,79.00 15.00,79.00 15.00,79.00
             15.00,79.00 15.00,83.00 15.00,83.00
             15.00,83.00 35.00,83.00 35.00,83.00
             35.00,83.00 35.00,67.00 35.00,67.00
             35.00,67.00 51.00,67.00 51.00,67.00
             51.00,67.00 51.00,51.00 51.00,51.00
             51.00,51.00 83.00,51.00 83.00,51.00
             83.00,51.00 83.00,35.00 83.00,35.00
             83.00,35.00 95.00,35.00 95.00,35.00
             95.00,35.00 95.00,95.00 95.00,95.00
             95.00,95.00 63.00,95.00 63.00,95.00
             63.00,95.00 63.00,98.00 63.00,98.00
             63.00,98.00 98.00,98.00 98.00,98.00
             98.00,98.00 98.00,0.00 98.00,0.00
             98.00,0.00 47.00,0.00 47.00,0.00 Z" />
</svg>
